<?xml version="1.0" encoding="UTF-8"?>
<svg width="40px" height="36px" viewBox="0 0 40 36" version="1.1" xmlns="http://www.w3.org/2000/svg" xmlns:xlink="http://www.w3.org/1999/xlink">
    <!-- Generator: Sketch 55.1 (78136) - https://sketchapp.com -->
    <title>home selected</title>
    <desc>Created with Sketch.</desc>
    <g id="home-selected" stroke="none" stroke-width="1" fill="none" fill-rule="evenodd">
        <path d="M0,15.1220703 L4.47968811,15.5838351 L6.12160806,35.820449 L15.5081107,35.820449 C16.083805,29.5588071 16.3716522,25.7691192 16.3716522,24.4513855 C16.3716522,22.4747849 18.531213,21.8547678 20.1010376,21.5136167 C21.6708622,21.1724657 24.1990748,22.9656346 24.1990748,24.4513855 C24.1990748,25.4418861 24.1990748,29.2315739 24.1990748,35.820449 L34.049581,35.820449 L35.177025,16.1562183 L40,15.5838351 L20.1010376,1.31810066 L0,15.1220703 Z" id="Path-2" fill="#FFC705" fill-rule="nonzero"></path>
        <path d="M39.5754386,14.2321048 L20.6517739,0.264655022 C20.2868616,-0.00463755459 19.7911111,-0.00463755459 19.4263548,0.264655022 L0.502534113,14.2321048 C0.0403118908,14.5733188 -0.0601169591,15.227607 0.278362573,15.6935633 C0.616842105,16.1595197 1.26596491,16.2606026 1.72810916,15.9195459 L20.0389864,2.40429694 L38.3498635,15.9194672 C38.5345029,16.0558428 38.7490838,16.1215321 38.9617934,16.1215321 C39.2811696,16.1215321 39.5963353,15.97331 39.7995322,15.6934847 C40.1380897,15.227607 40.0376608,14.5733188 39.5754386,14.2321048 Z" id="Path" fill="#FFC705" fill-rule="nonzero"></path>
        <path d="M34.5610916,16.1562183 C33.9883041,16.1562183 33.5238207,16.6243755 33.5238207,17.201869 L33.5238207,33.8458952 L25.225809,33.8458952 L25.225809,24.7605328 C25.225809,21.8773886 22.8989474,19.5318865 20.0390643,19.5318865 C17.1791813,19.5318865 14.8523197,21.8775459 14.8523197,24.7605328 L14.8523197,33.8459738 L6.55423002,33.8459738 L6.55423002,17.2019476 C6.55423002,16.6244541 6.08974659,16.1562183 5.51695906,16.1562183 C4.94417154,16.1562183 4.47968811,16.6244541 4.47968811,17.2019476 L4.47968811,34.8917031 C4.47968811,35.4691965 4.94417154,35.9373537 5.51695906,35.9373537 L15.8895906,35.9373537 C16.4350877,35.9373537 16.8814815,35.5125066 16.922807,34.9731354 C16.9253021,34.94869 16.9268616,34.9219651 16.9268616,34.8917031 L16.9268616,24.7606114 C16.9268616,23.0306463 18.322963,21.6232664 20.0390643,21.6232664 C21.7551657,21.6232664 23.1512671,23.0307249 23.1512671,24.7606114 L23.1512671,34.8917031 C23.1512671,34.9218079 23.1528265,34.9480611 23.1553216,34.9721921 C23.1961793,35.5119563 23.642729,35.9373537 24.188538,35.9373537 L34.5611696,35.9373537 C35.1340351,35.9373537 35.5984405,35.4691965 35.5984405,34.8917031 L35.5984405,17.2019476 C35.5984405,16.6243755 35.1339571,16.1562183 34.5610916,16.1562183 Z" id="Path" fill="#FFC705" fill-rule="nonzero"></path>
    </g>
</svg>