<?xml version="1.0" encoding="UTF-8"?>
<svg width="36px" height="36px" viewBox="0 0 36 36" version="1.1" xmlns="http://www.w3.org/2000/svg" xmlns:xlink="http://www.w3.org/1999/xlink">
    <!-- Generator: Sketch 55.1 (78136) - https://sketchapp.com -->
    <title>profile empty</title>
    <desc>Created with Sketch.</desc>
    <g id="profile-empty" stroke="none" stroke-width="1" fill="none" fill-rule="evenodd">
        <path d="M17.7903442,17.3413696 C20.1727295,17.3413696 22.2354126,16.486908 23.9212646,14.8010559 C25.6065674,13.1154785 26.4613037,11.0530701 26.4613037,8.67041016 C26.4613037,6.28857422 25.606842,4.22589108 23.92099,2.53976442 C22.2351379,0.854461687 20.1724549,0 17.7903442,0 C15.4076843,0 13.3452758,0.854461687 11.6596985,2.54003906 C9.97412109,4.22561644 9.11938477,6.28829958 9.11938477,8.67041016 C9.11938477,11.0530701 9.97412109,13.1157532 11.6596985,14.8013305 C13.3458252,16.4866333 15.4085083,17.3413696 17.7903442,17.3413696 Z M13.1516418,4.03170778 C14.4450074,2.73834225 15.9622192,2.10964964 17.7903442,2.10964964 C19.6181946,2.10964964 21.1356812,2.73834225 22.4293213,4.03170778 C23.7226868,5.32534788 24.3516541,6.84283444 24.3516541,8.67041016 C24.3516541,10.4985352 23.7226868,12.0157471 22.4293213,13.3093872 C21.1356812,14.6030273 19.6181946,15.23172 17.7903442,15.23172 C15.9627686,15.23172 14.4455566,14.6027527 13.1516418,13.3093872 C11.8580017,12.0160217 11.2290344,10.4985352 11.2290344,8.67041016 C11.2290344,6.84283444 11.8580017,5.32534788 13.1516418,4.03170778 Z" id="Shape" fill="#36353B" fill-rule="nonzero"></path>
        <path d="M32.9621887,27.682251 C32.9135742,26.9807739 32.8152465,26.2155762 32.6705017,25.4075317 C32.5243836,24.5934449 32.3362426,23.8238525 32.111023,23.1204529 C31.8781128,22.3934326 31.5619812,21.6754761 31.1705933,20.9874573 C30.7649231,20.2733459 30.2881164,19.6515198 29.7530823,19.1398316 C29.1936035,18.6045227 28.5086059,18.1741333 27.7164917,17.860199 C26.927124,17.5479126 26.0523377,17.3897094 25.1165771,17.3897094 C24.7490844,17.3897094 24.3936768,17.5404968 23.7073059,17.9873657 C23.2848816,18.2628479 22.7907715,18.5814514 22.2392578,18.9338379 C21.7676697,19.234314 21.1288147,19.5158386 20.3397217,19.7707215 C19.5698547,20.0198364 18.7881775,20.1461792 18.0163879,20.1461792 C17.2451477,20.1461792 16.4634705,20.0198364 15.6930542,19.7707215 C14.9047852,19.5161133 14.2656555,19.2345886 13.7948914,18.9341125 C13.2485962,18.5850219 12.7542114,18.2664184 12.32547,17.987091 C11.6396484,17.5402222 11.2842407,17.3894348 10.916748,17.3894348 C9.98071289,17.3894348 9.10620117,17.5479126 8.31710817,17.8604736 C7.5255432,18.1738586 6.84027103,18.604248 6.28024294,19.1401062 C5.74520876,19.6520691 5.26840212,20.2736206 4.86300661,20.9874573 C4.47216797,21.6754761 4.15576172,22.393158 3.92285156,23.1207275 C3.69790648,23.8241272 3.50976562,24.5934449 3.36364746,25.4075317 C3.21862793,26.2144775 3.12057497,26.97995 3.07196048,27.683075 C3.02416992,28.3705445 3,29.0860291 3,29.8089295 C3,31.6881409 3.59738161,33.2094727 4.77539062,34.3314514 C5.93884277,35.4385986 7.47802734,36 9.3503723,36 L26.6846008,36 C28.5563965,36 30.0955811,35.4385986 31.2593078,34.3314514 C32.4375916,33.2102966 33.0349731,31.6884156 33.0349731,29.8086547 C33.0349731,29.0832825 33.0102539,28.3677979 32.9621887,27.682251 L32.9621887,27.682251 Z M29.804718,32.8029785 C29.0359497,33.534668 28.0153199,33.8903504 26.6843262,33.8903504 L9.3503723,33.8903504 C8.01910397,33.8903504 6.99847416,33.534668 6.22998047,32.8032532 C5.47604372,32.0855713 5.10964964,31.1058655 5.10964964,29.8089295 C5.10964964,29.1343689 5.13189694,28.4683227 5.1763916,27.8289184 C5.21978756,27.2015992 5.30850218,26.5124817 5.44006348,25.7802429 C5.56997679,25.0570679 5.73532106,24.3783875 5.93197634,23.763977 C6.12066647,23.1748352 6.37802126,22.5914612 6.69717405,22.0295105 C7.00176998,21.493927 7.35223392,21.0344238 7.73895267,20.6641846 C8.10067751,20.3178406 8.55661012,20.0343933 9.09384157,19.8218078 C9.59069824,19.6251526 10.1490784,19.5174866 10.755249,19.5012817 C10.8291321,19.5405578 10.9606934,19.6155395 11.1738281,19.7545166 C11.6075134,20.0371399 12.1073914,20.3595886 12.6600037,20.7125244 C13.2829285,21.1096801 14.0854797,21.4683838 15.0443115,21.7779236 C16.0245666,22.0948791 17.0243225,22.2558289 18.0166626,22.2558289 C19.0090027,22.2558289 20.0090332,22.0948791 20.988739,21.7781982 C21.9483948,21.4681091 22.7506714,21.1096801 23.3744201,20.7119751 C23.9399414,20.3505249 24.4258118,20.0374145 24.8594971,19.7545166 C25.0726318,19.6158142 25.2041931,19.5405578 25.2780762,19.5012817 C25.8845215,19.5174866 26.4429016,19.6251526 26.940033,19.8218078 C27.4769898,20.0343933 27.9329223,20.3181152 28.2946472,20.6641846 C28.681366,21.0341492 29.0318299,21.4936523 29.3364258,22.0297852 C29.6558533,22.5914612 29.9134826,23.1751098 30.1018982,23.7637024 C30.2988281,24.3789367 30.464447,25.0573425 30.5940857,25.7799683 C30.7253723,26.5135803 30.8143616,27.2029724 30.8577576,27.8291931 L30.8577576,27.8297424 C30.9025269,28.4666748 30.9250488,29.1324463 30.9253235,29.8089295 C30.9250488,31.1061402 30.5586547,32.0855713 29.804718,32.8029785 L29.804718,32.8029785 Z" id="Shape" fill="#36353B" fill-rule="nonzero"></path>
    </g>
</svg>