<?xml version="1.0" encoding="UTF-8"?>
<svg width="36px" height="36px" viewBox="0 0 36 36" version="1.1" xmlns="http://www.w3.org/2000/svg" xmlns:xlink="http://www.w3.org/1999/xlink">
    <!-- Generator: Sketch 55.1 (78136) - https://sketchapp.com -->
    <title>profile selected</title>
    <desc>Created with Sketch.</desc>
    <g id="profile-selected" stroke="none" stroke-width="1" fill="none" fill-rule="evenodd">
        <path d="M17.7615131,17.3075658 C20.1392544,17.3075658 22.1981908,16.4547698 23.8804825,14.7722039 C25.5627741,13.0899123 26.4155702,11.0315241 26.4155702,8.65350877 C26.4155702,6.27631579 25.5627741,4.21765347 23.8802084,2.53481361 C22.1976425,0.85279607 20.1389803,0 17.7615131,0 C15.3834978,0 13.3251096,0.85279607 11.642818,2.53508772 C9.96052632,4.21737937 9.10745614,6.27604168 9.10745614,8.65350877 C9.10745614,11.0315241 9.96052632,13.0901864 11.6430921,14.772478 C13.3256579,16.4544956 15.3843201,17.3075658 17.7615131,17.3075658 Z" id="Path" fill="#FFC705" fill-rule="nonzero"></path>
        <path d="M32.9037829,27.6282895 C32.8552632,26.9281798 32.7571272,26.1644737 32.6126645,25.3580044 C32.4668312,24.5455044 32.279057,23.7774123 32.0542764,23.0753838 C31.8220943,22.3497807 31.5063048,21.6332237 31.115954,20.946546 C30.7108004,20.2338267 30.2349232,19.6132127 29.700932,19.102522 C29.1425439,18.5682566 28.4588815,18.1387061 27.6683114,17.8253838 C26.8804825,17.5137061 26.0074013,17.3558114 25.0734649,17.3558114 C24.7066886,17.3558114 24.3519737,17.5063048 23.6669408,17.9523026 C23.2453399,18.2272478 22.752193,18.5452302 22.2017544,18.8969298 C21.7310855,19.1968202 21.0934759,19.4777961 20.3059211,19.732182 C19.5375548,19.9808114 18.7574013,20.1069079 17.9873903,20.1069079 C17.2173794,20.1069079 16.4375,19.9808114 15.6683114,19.732182 C14.8815789,19.4780702 14.2439693,19.1970943 13.7738487,18.8972039 C13.2286184,18.5487938 12.7351973,18.2308114 12.3072916,17.9520285 C11.6230811,17.5060307 11.2680921,17.3555373 10.9013158,17.3555373 C9.96710526,17.3555373 9.09429825,17.5137061 8.30674344,17.8256579 C7.51672147,18.138432 6.83278512,18.5679825 6.2738487,19.1027961 C5.74013158,19.613761 5.26398028,20.2341009 4.85937502,20.946546 C4.46929825,21.6332237 4.15350877,22.3495066 3.92105263,23.0756579 C3.69654604,23.7776864 3.50877193,24.5455044 3.3629386,25.3580044 C3.21847586,26.1633772 3.12033993,26.9273575 3.07182021,27.6291119 C3.02412281,28.3166119 3,29.0301535 3,29.7508224 C3,31.6263706 3.59621712,33.1447368 4.77192982,34.2645285 C5.93311404,35.3695175 7.46957235,35.9300987 9.3379934,35.9300987 L26.638432,35.9300987 C28.5068531,35.9300987 30.0427632,35.3697916 31.2042215,34.2645285 C32.3802084,33.1455592 32.9764254,31.6269189 32.9764254,29.7505482 C32.9764254,29.0265899 32.9517544,28.3125 32.9037829,27.6282895 L32.9037829,27.6282895 Z" id="Path" fill="#FFC705" fill-rule="nonzero"></path>
    </g>
</svg>