<?xml version="1.0" encoding="UTF-8"?>
<svg width="36px" height="36px" viewBox="0 0 36 36" version="1.1" xmlns="http://www.w3.org/2000/svg" xmlns:xlink="http://www.w3.org/1999/xlink">
    <!-- Generator: Sketch 55.1 (78136) - https://sketchapp.com -->
    <title>settings empty</title>
    <desc>Created with Sketch.</desc>
    <g id="settings-empty" stroke="none" stroke-width="1" fill="none" fill-rule="evenodd">
        <path d="M34.3951172,14.5234688 C33.7180781,14.4220781 33.0230391,14.3248359 32.3294062,14.2344141 C32.2453828,14.2235156 32.1771797,14.1664922 32.1559453,14.0892891 C31.8358125,12.9275156 31.3712578,11.8064531 30.7752891,10.75725 C30.7352109,10.6867969 30.7427344,10.5979219 30.7944844,10.5306328 C31.2210703,9.97621875 31.6439297,9.41575781 32.0513906,8.86492969 C32.6015156,8.12116406 32.5216406,7.06577344 31.8657656,6.40982813 L29.5900312,4.13409375 C28.9340859,3.47821875 27.8787656,3.39834375 27.1348594,3.94860938 C26.5852266,4.35515625 26.0248359,4.77801563 25.4692266,5.20544531 C25.4021484,5.25719531 25.3130625,5.26471875 25.2426094,5.22471094 C24.1934766,4.62874219 23.0724141,4.1641875 21.9105703,3.84398438 C21.8332969,3.82282031 21.7762734,3.75461719 21.7653047,3.67038281 C21.6746719,2.97569531 21.5775,2.28072656 21.4763906,1.60488281 C21.3394922,0.68990625 20.5368047,0 19.6091719,0 L16.3907578,0 C15.4630547,0 14.6603672,0.68990625 14.5236797,1.6048125 C14.4225,2.28079688 14.3253281,2.97569531 14.2346953,3.67052344 C14.2236562,3.7546875 14.1667031,3.82275 14.0893594,3.84398438 C12.9275156,4.16432812 11.8063828,4.6288125 10.7574609,5.22471094 C10.6869375,5.26471875 10.5979219,5.25698438 10.5307031,5.20544531 C9.97516406,4.77801563 9.41470313,4.35515625 8.865,3.94853906 C8.12102344,3.39834375 7.06570312,3.47835937 6.40989844,4.13416406 L4.13416406,6.40989844 C3.47821875,7.06591406 3.39841406,8.121375 3.94867969,8.86507031 C4.35677344,9.41674219 4.77963281,9.9770625 5.20551562,10.5306328 C5.25719531,10.5977812 5.26478906,10.6867266 5.22478125,10.75725 C4.62867187,11.8066641 4.1641875,12.9277266 3.84405469,14.0892891 C3.82289062,14.1664219 3.7546875,14.2234453 3.67059375,14.2344844 C2.9773125,14.3249766 2.28234375,14.4221484 1.60495312,14.5235391 C0.68990625,14.6602969 0,15.463125 0,16.3906875 L0,19.6091719 C0,20.5368047 0.68990625,21.3395625 1.6048125,21.4763906 C2.28220312,21.5777812 2.97724219,21.6749531 3.67052344,21.765375 C3.7546875,21.7764141 3.82275,21.8333672 3.84398437,21.9106406 C4.16411719,23.0722734 4.62867187,24.1933359 5.22471094,25.2426797 C5.26471875,25.3132031 5.257125,25.4021484 5.20544531,25.4692969 C4.77850781,26.0242031 4.35564844,26.5845937 3.94860937,27.1349297 C3.39841406,27.8786953 3.47814844,28.9341562 4.13409375,29.5901016 L6.40982812,31.8658359 C7.06584375,32.5217812 8.12130469,32.6016562 8.865,32.0513203 C9.41463281,31.6447734 9.97502344,31.2219141 10.5306328,30.7944844 C10.5977813,30.7427344 10.6867969,30.7352812 10.75725,30.7752187 C11.8063125,31.3711875 12.9273047,31.8356016 14.0892891,32.1559453 C14.1665625,32.1771797 14.2235859,32.2453125 14.2345547,32.3294062 C14.3251875,33.0240937 14.4224297,33.7191328 14.5235391,34.3949062 C14.6603672,35.3098828 15.4630547,35.9997891 16.3907578,35.9997891 L19.6091719,35.9997891 C20.5368047,35.9997891 21.3395625,35.3098828 21.4763203,34.3947656 C21.5775,33.7181484 21.6746719,33.0231797 21.7652344,32.3292656 C21.7762734,32.2451016 21.8332266,32.1769687 21.9105,32.1556641 C23.0723438,31.8353203 24.1934766,31.3708359 25.2424688,30.7749375 C25.3129922,30.7350703 25.4019375,30.7426641 25.4691562,30.7942031 C26.0246953,31.2216328 26.5851563,31.6444922 27.1347891,32.0510391 C27.8785547,32.6012344 28.9339453,32.5215 29.5899609,31.8655547 L31.8656953,29.5898203 C32.5215703,28.933875 32.6014453,27.8784844 32.05125,27.1346484 C31.6437891,26.5840312 31.2208594,26.0235703 30.7943438,25.4690156 C30.7426641,25.4018672 30.7350703,25.3129219 30.7751484,25.2423984 C31.3711875,24.1930547 31.8356719,23.0719922 32.1558047,21.9104297 C32.1771797,21.8330859 32.2452422,21.7761328 32.3294063,21.7650937 C33.0228984,21.6746719 33.7179375,21.5774297 34.3950469,21.4761094 C35.3100234,21.3393516 35.9999297,20.5365937 35.9999297,19.6089609 L35.9999297,16.3904766 C35.9999297,15.4630547 35.3100234,14.6602266 34.3951172,14.5234688 Z M34.3191094,19.6093125 C34.3191094,19.7112656 34.2447891,19.7991562 34.1464219,19.8139922 C33.4797188,19.9137656 32.7952969,20.0093906 32.1121406,20.0986172 C31.3557188,20.1971953 30.7368281,20.7331172 30.5353125,21.4640859 C30.2520234,22.4919141 29.8409766,23.4839531 29.3136328,24.4124297 C28.9386563,25.0725938 28.9969453,25.8898359 29.4621328,26.4945234 C29.8823203,27.0407109 30.2987813,27.5925938 30.6999141,28.1348438 C30.7591172,28.2147891 30.7492734,28.3295391 30.6772031,28.4016094 L28.4013984,30.6773438 C28.3292578,30.7494844 28.2145781,30.7591172 28.1347031,30.700125 C27.5935078,30.2996953 27.0414844,29.8832344 26.4943125,29.4622734 C25.8896953,28.9970156 25.0725234,28.9387266 24.4124297,29.3136328 C23.4839531,29.8409766 22.4919141,30.2520938 21.4639453,30.5354531 C20.7331172,30.7368984 20.1971953,31.3557891 20.0984063,32.1122813 C20.0093203,32.7958594 19.9135547,33.4802813 19.8138516,34.1465625 C19.7991563,34.2449297 19.711125,34.3190391 19.6091719,34.3190391 L16.3907578,34.3190391 C16.2888047,34.3190391 16.2007734,34.2449297 16.1860781,34.1464922 C16.0865859,33.4809844 15.99075,32.7965625 15.9015234,32.1123516 C15.802875,31.3558594 15.2668125,30.7369688 14.5359844,30.5355234 C13.5079453,30.2521641 12.5159063,29.8410469 11.5875,29.3136328 C11.2980234,29.1493125 10.9783125,29.0681719 10.6596563,29.0681719 C10.2515625,29.0681719 9.84508594,29.2010625 9.5056875,29.4624141 C8.95844531,29.883375 8.40649219,30.2998359 7.86529688,30.7002656 C7.78528125,30.7592578 7.67074219,30.749625 7.59867188,30.6774844 L5.32286719,28.40175 C5.25072656,28.3296094 5.24088281,28.215 5.30008594,28.1350547 C5.7009375,27.5931563 6.11732813,27.0412734 6.53786719,26.4946641 C7.00298438,25.8899766 7.06134375,25.072875 6.68650781,24.4127813 C6.15895313,23.4840234 5.74797656,22.4920547 5.4646875,21.4642969 C5.26324219,20.7334688 4.64435156,20.1974766 3.88792969,20.0988281 C3.20505469,20.0097422 2.5205625,19.9139063 1.85350781,19.8142031 C1.75514063,19.7994375 1.68103125,19.7114766 1.68103125,19.6095234 L1.68103125,16.3910391 C1.68103125,16.2890859 1.75514063,16.201125 1.85350781,16.1863594 C2.5205625,16.0865859 3.20498438,15.9908203 3.88778906,15.9017344 C4.64428125,15.8031563 5.26317188,15.2671641 5.46461719,14.5362656 C5.74776563,13.5085781 6.15888281,12.5165391 6.6864375,11.5877813 C7.06134375,10.9276172 7.00298438,10.1104453 6.53786719,9.50589844 C6.11845313,8.96055469 5.70199219,8.40874219 5.30008594,7.86550781 C5.24102344,7.7855625 5.25079688,7.6708125 5.32286719,7.5988125 L7.59853125,5.32300781 C7.67053125,5.25086719 7.78521094,5.24123438 7.86515625,5.30022656 C8.40635156,5.70058594 8.95830469,6.11704688 9.50554688,6.53807813 C10.1102344,7.003125 10.9273359,7.06155469 11.5875703,6.68657813 C12.5159063,6.15923438 13.5079453,5.74811719 14.5359141,5.46475781 C15.2668125,5.2633125 15.802875,4.64442188 15.9015234,3.88792969 C15.9908203,3.20371875 16.0865156,2.51929688 16.1861484,1.85357813 C16.2008438,1.75535156 16.288875,1.68117188 16.3908281,1.68117188 L19.6092422,1.68117188 C19.7111953,1.68117188 19.7992266,1.75528125 19.8139219,1.85364844 C19.9135547,2.51915625 20.00925,3.20350781 20.0985469,3.88792969 C20.1971953,4.64442188 20.7332578,5.2633125 21.4640859,5.46475781 C22.4920547,5.74811719 23.4840234,6.15923438 24.4125703,6.68657813 C25.0726641,7.06134375 25.8898359,7.003125 26.4943828,6.5379375 C27.041625,6.11697656 27.5935781,5.70051563 28.1347031,5.30015625 C28.2146484,5.24095313 28.3293984,5.25072656 28.4014688,5.3229375 L30.6772031,7.59867188 C30.7493438,7.6708125 30.7590469,7.78549219 30.6999844,7.86536719 C30.2988516,8.40775781 29.8823906,8.95957031 29.4622031,9.50575781 C28.9970859,10.1105156 28.9387266,10.9276875 29.3137031,11.5878516 C29.8411172,12.5163281 30.2521641,13.5082969 30.5355234,14.5362656 C30.7369688,15.2670938 31.356,15.8030156 32.1122109,15.9015938 C32.7953672,15.99075 33.4798594,16.0865156 34.1466328,16.1862188 C34.245,16.2009844 34.3191094,16.2889453 34.3191094,16.3908984 L34.3191094,19.6093125 L34.3191094,19.6093125 Z" id="Shape" fill="#36353B" fill-rule="nonzero"></path>
        <path d="M18,10.1858906 C13.69125,10.1858906 10.1858906,13.69125 10.1858906,18 C10.1858906,22.30875 13.69125,25.8141094 18,25.8141094 C22.30875,25.8141094 25.8141094,22.30875 25.8141094,18 C25.8141094,13.69125 22.30875,10.1858906 18,10.1858906 Z M18,24.1330078 C14.6181797,24.1330078 11.8669922,21.38175 11.8669922,18 C11.8669922,14.6181797 14.6183203,11.8669922 18,11.8669922 C21.38175,11.8669922 24.1330078,14.61825 24.1330078,18 C24.1330078,21.38175 21.3818203,24.1330078 18,24.1330078 Z" id="Shape" fill="#36353B" fill-rule="nonzero"></path>
    </g>
</svg>