<?xml version="1.0" encoding="UTF-8"?>
<svg width="36px" height="36px" viewBox="0 0 36 36" version="1.1" xmlns="http://www.w3.org/2000/svg" xmlns:xlink="http://www.w3.org/1999/xlink">
    <!-- Generator: Sketch 55.1 (78136) - https://sketchapp.com -->
    <title>settings selected</title>
    <desc>Created with Sketch.</desc>
    <g id="settings-selected" stroke="none" stroke-width="1" fill="none" fill-rule="evenodd">
        <path d="M34.3951172,14.5234687 C35.3100234,14.6602266 35.9999297,15.4630547 35.9999297,16.3904766 L35.9999297,19.6089609 C35.9999297,20.5365937 35.3100234,21.3393516 34.3950469,21.4761094 C33.7179375,21.5774297 33.0228984,21.6746719 32.3294062,21.7650937 C32.2452422,21.7761328 32.1771797,21.8330859 32.1558047,21.9104297 C31.8356719,23.0719922 31.3711875,24.1930547 30.7751484,25.2423984 C30.7350703,25.3129219 30.7426641,25.4018672 30.7943437,25.4690156 C31.2208594,26.0235703 31.6437891,26.5840312 32.05125,27.1346484 C32.6014453,27.8784844 32.5215703,28.933875 31.8656953,29.5898203 L29.5899609,31.8655547 C28.9339453,32.5215 27.8785547,32.6012344 27.1347891,32.0510391 C26.5851562,31.6444922 26.0246953,31.2216328 25.4691562,30.7942031 C25.4019375,30.7426641 25.3129922,30.7350703 25.2424687,30.7749375 C24.1934766,31.3708359 23.0723437,31.8353203 21.9105,32.1556641 C21.8332266,32.1769687 21.7762734,32.2451016 21.7652344,32.3292656 C21.6746719,33.0231797 21.5775,33.7181484 21.4763203,34.3947656 C21.3395625,35.3098828 20.5368047,35.9997891 19.6091719,35.9997891 L16.3907578,35.9997891 C15.4630547,35.9997891 14.6603672,35.3098828 14.5235391,34.3949062 C14.4224297,33.7191328 14.3251875,33.0240937 14.2345547,32.3294062 C14.2235859,32.2453125 14.1665625,32.1771797 14.0892891,32.1559453 C12.9273047,31.8356016 11.8063125,31.3711875 10.75725,30.7752187 C10.6867969,30.7352812 10.5977812,30.7427344 10.5306328,30.7944844 C9.97502344,31.2219141 9.41463281,31.6447734 8.865,32.0513203 C8.12130469,32.6016562 7.06584375,32.5217812 6.40982812,31.8658359 L4.13409375,29.5901016 C3.47814844,28.9341562 3.39841406,27.8786953 3.94860937,27.1349297 C4.35564844,26.5845937 4.77850781,26.0242031 5.20544531,25.4692969 C5.257125,25.4021484 5.26471875,25.3132031 5.22471094,25.2426797 C4.62867187,24.1933359 4.16411719,23.0722734 3.84398437,21.9106406 C3.82275,21.8333672 3.7546875,21.7764141 3.67052344,21.765375 C2.97724219,21.6749531 2.28220312,21.5777812 1.6048125,21.4763906 C0.68990625,21.3395625 -2.13162821e-14,20.5368047 -2.13162821e-14,19.6091719 L-2.13162821e-14,16.3906875 C-2.13162821e-14,15.463125 0.68990625,14.6602969 1.60495312,14.5235391 C2.28234375,14.4221484 2.9773125,14.3249766 3.67059375,14.2344844 C3.7546875,14.2234453 3.82289062,14.1664219 3.84405469,14.0892891 C4.1641875,12.9277266 4.62867187,11.8066641 5.22478125,10.75725 C5.26478906,10.6867266 5.25719531,10.5977812 5.20551562,10.5306328 C4.77963281,9.9770625 4.35677344,9.41674219 3.94867969,8.86507031 C3.39841406,8.121375 3.47821875,7.06591406 4.13416406,6.40989844 L6.40989844,4.13416406 C7.06570312,3.47835937 8.12102344,3.39834375 8.865,3.94853906 C9.41470312,4.35515625 9.97516406,4.77801562 10.5307031,5.20544531 C10.5979219,5.25698437 10.6869375,5.26471875 10.7574609,5.22471094 C11.8063828,4.6288125 12.9275156,4.16432812 14.0893594,3.84398437 C14.1667031,3.82275 14.2236562,3.7546875 14.2346953,3.67052344 C14.3253281,2.97569531 14.4225,2.28079687 14.5236797,1.6048125 C14.6603672,0.68990625 15.4630547,-3.55271368e-15 16.3907578,-3.55271368e-15 L19.6091719,-3.55271368e-15 C20.5368047,-3.55271368e-15 21.3394922,0.68990625 21.4763906,1.60488281 C21.5775,2.28072656 21.6746719,2.97569531 21.7653047,3.67038281 C21.7762734,3.75461719 21.8332969,3.82282031 21.9105703,3.84398437 C23.0724141,4.1641875 24.1934766,4.62874219 25.2426094,5.22471094 C25.3130625,5.26471875 25.4021484,5.25719531 25.4692266,5.20544531 C26.0248359,4.77801562 26.5852266,4.35515625 27.1348594,3.94860937 C27.8787656,3.39834375 28.9340859,3.47821875 29.5900312,4.13409375 L31.8657656,6.40982812 C32.5216406,7.06577344 32.6015156,8.12116406 32.0513906,8.86492969 C31.6439297,9.41575781 31.2210703,9.97621875 30.7944844,10.5306328 C30.7427344,10.5979219 30.7352109,10.6867969 30.7752891,10.75725 C31.3712578,11.8064531 31.8358125,12.9275156 32.1559453,14.0892891 C32.1771797,14.1664922 32.2453828,14.2235156 32.3294062,14.2344141 C33.0230391,14.3248359 33.7180781,14.4220781 34.3951172,14.5234687 Z M18.5000002,25.1330082 C22.1575271,25.1330082 25.1330082,22.1574511 25.1330082,18.5000002 C25.1330082,14.8425493 22.1574511,11.8669922 18.5000002,11.8669922 C14.8426254,11.8669922 11.8669922,14.8424733 11.8669922,18.5000002 C11.8669922,22.1574511 14.8424733,25.1330082 18.5000002,25.1330082 Z" id="Combined-Shape" fill="#FFC705" fill-rule="nonzero"></path>
    </g>
</svg>