<?xml version="1.0" encoding="UTF-8"?>
<svg width="36px" height="36px" viewBox="0 0 36 36" version="1.1" xmlns="http://www.w3.org/2000/svg" xmlns:xlink="http://www.w3.org/1999/xlink">
    <!-- Generator: Sketch 55.1 (78136) - https://sketchapp.com -->
    <title>winners selected</title>
    <desc>Created with Sketch.</desc>
    <g id="winners-selected" stroke="none" stroke-width="1" fill="none" fill-rule="evenodd">
        <path d="M33.2660156,3.47160938 C32.7692578,2.88745313 32.0448281,2.55255469 31.2784922,2.55255469 L28.7632031,2.55255469 L28.7632031,1.76575781 C28.7632031,0.792140625 27.9709922,0 26.9974453,0 L9.94019531,0 C8.96650781,0 8.17450781,0.792140625 8.17450781,1.7656875 L8.17450781,2.55248438 L5.6589375,2.55248438 C4.89260156,2.55248438 4.16810156,2.88745313 3.67141406,3.47153906 C3.17978906,4.04957813 2.96730469,4.8088125 3.08859375,5.55447656 C3.74953125,9.61853906 6.30714844,13.2089063 9.93703125,15.1782891 C10.2686953,15.9757031 10.6443047,16.731 11.0625938,17.4346875 C12.3986719,19.6829297 14.0596641,21.2366953 15.8879297,21.988125 C16.0732031,23.8615313 14.8266328,25.6362891 12.9492891,26.0592187 C12.9452813,26.0601328 12.9424687,26.0615391 12.9385313,26.0624531 C12.5721328,26.1499922 12.2993906,26.4787734 12.2993906,26.8719609 L12.2993906,30.6943594 L10.7535,30.6943594 C9.37523438,30.6943594 8.25396094,31.8156328 8.25396094,33.1938984 L8.25396094,35.1667266 C8.25396094,35.6269219 8.62696875,35.9999297 9.08716406,35.9999297 L27.93,35.9999297 C28.3901953,35.9999297 28.7632031,35.6269219 28.7632031,35.1667266 L28.7632031,33.1938984 C28.7632031,31.8156328 27.6419297,30.6943594 26.2636641,30.6943594 L24.7176328,30.6943594 L24.7176328,26.8720313 C24.7176328,26.4780703 24.4439063,26.1487969 24.0765234,26.0620313 C24.0730781,26.0611875 24.0697734,26.0600625 24.0663281,26.0592187 C22.1747813,25.6334766 20.9258906,23.8408594 21.1306406,21.9533906 C22.9269844,21.1897969 24.5588672,19.6498828 25.8752578,17.4348281 C26.2935469,16.7310703 26.6690859,15.9757031 27.0008203,15.1781484 C30.6304922,13.2086953 33.1879688,9.61839844 33.8489062,5.55447656 C33.9701953,4.8088125 33.7577109,4.04964844 33.2660156,3.47160938 Z M4.73334375,5.2869375 C4.69003125,5.02066406 4.76364844,4.7593125 4.94069531,4.55104688 C5.12034375,4.33982813 5.38204688,4.21875 5.65886719,4.21875 L8.1744375,4.21875 L8.1744375,5.75170313 C8.1744375,8.15540625 8.48121094,10.4837344 9.062625,12.6130078 C6.77775,10.8074531 5.20457812,8.18458594 4.73334375,5.2869375 Z M22.9659375,29.6944297 L22.9659375,30.6944297 L13.9659375,30.6944297 L13.9659375,29.6944297 L22.9659375,29.6944297 Z M20.4659375,24.6944297 L20.4659375,25.6944297 L16.4659375,25.6944297 L16.4659375,24.6944297 L20.4659375,24.6944297 Z M32.2041563,5.2869375 C31.7329219,8.184375 30.1598906,10.8071719 27.8750859,12.6128672 C28.4564297,10.4835937 28.7632031,8.15540625 28.7632031,5.75177344 L28.7632031,4.21882031 L31.2784922,4.21882031 C31.5553828,4.21882031 31.8170859,4.33996875 31.9966641,4.55111719 C32.1737109,4.7593125 32.2473984,5.02066406 32.2041563,5.2869375 Z" id="Shape" fill="#FFC705" fill-rule="nonzero"></path>
        <path d="M22.8660021,8.56956694 C22.7707308,8.27671862 22.5174935,8.06322892 22.2126936,8.01883726 L19.7706063,7.66397722 L18.6785034,5.45108749 C18.5421185,5.17490311 18.260812,5 17.9528023,5 C17.6447242,5 17.3634177,5.17490311 17.2271012,5.45108749 L16.1349982,7.66397722 L13.692911,8.01883726 C13.3880428,8.06309233 13.1348055,8.27665032 13.0396025,8.56963523 C12.9444677,8.86268843 13.0238263,9.18422059 13.2444187,9.39928107 L15.011548,11.1217455 L14.5943347,13.55393 C14.5422257,13.8575689 14.6670004,14.1643494 14.9162766,14.3454673 C15.1654163,14.526517 15.495895,14.5503519 15.7685281,14.4070693 L17.9528023,13.2588279 L20.1370082,14.4070693 C20.2554314,14.4692859 20.3847136,14.5 20.5134494,14.5 C20.6811815,14.5 20.8482307,14.4478413 20.9891913,14.345399 C21.2384675,14.1642811 21.3632422,13.8575006 21.3111332,13.5538617 L20.89392,11.1216772 L22.6610492,9.39921278 C22.8817782,9.18422059 22.9611368,8.86262014 22.8660021,8.56956694 Z" id="Shape" fill="#FFFFFF" fill-rule="nonzero"></path>
    </g>
</svg>