<?xml version="1.0" encoding="UTF-8"?>
<svg width="36px" height="36px" viewBox="0 0 36 36" version="1.1" xmlns="http://www.w3.org/2000/svg" xmlns:xlink="http://www.w3.org/1999/xlink">
    <!-- Generator: Sketch 55.1 (78136) - https://sketchapp.com -->
    <title>winners empty</title>
    <desc>Created with Sketch.</desc>
    <g id="winners-empty" stroke="none" stroke-width="1" fill="none" fill-rule="evenodd">
        <path d="M33.2660156,3.47160938 C32.7692578,2.88745313 32.0448281,2.55255469 31.2784922,2.55255469 L28.7632031,2.55255469 L28.7632031,1.76575781 C28.7632031,0.792140625 27.9709922,0 26.9974453,0 L9.94019531,0 C8.96650781,0 8.17450781,0.792140625 8.17450781,1.7656875 L8.17450781,2.55248438 L5.6589375,2.55248438 C4.89260156,2.55248438 4.16810156,2.88745313 3.67141406,3.47153906 C3.17978906,4.04957813 2.96730469,4.8088125 3.08859375,5.55447656 C3.74953125,9.61853906 6.30714844,13.2089063 9.93703125,15.1782891 C10.2686953,15.9757031 10.6443047,16.731 11.0625938,17.4346875 C12.3986719,19.6829297 14.0596641,21.2366953 15.8879297,21.988125 C16.0732031,23.8615313 14.8266328,25.6362891 12.9492891,26.0592187 C12.9452813,26.0601328 12.9424687,26.0615391 12.9385313,26.0624531 C12.5721328,26.1499922 12.2993906,26.4787734 12.2993906,26.8719609 L12.2993906,30.6943594 L10.7535,30.6943594 C9.37523438,30.6943594 8.25396094,31.8156328 8.25396094,33.1938984 L8.25396094,35.1667266 C8.25396094,35.6269219 8.62696875,35.9999297 9.08716406,35.9999297 L27.93,35.9999297 C28.3901953,35.9999297 28.7632031,35.6269219 28.7632031,35.1667266 L28.7632031,33.1938984 C28.7632031,31.8156328 27.6419297,30.6943594 26.2636641,30.6943594 L24.7176328,30.6943594 L24.7176328,26.8720313 C24.7176328,26.4780703 24.4439063,26.1487969 24.0765234,26.0620313 C24.0730781,26.0611875 24.0697734,26.0600625 24.0663281,26.0592187 C22.1747813,25.6334766 20.9258906,23.8408594 21.1306406,21.9533906 C22.9269844,21.1897969 24.5588672,19.6498828 25.8752578,17.4348281 C26.2935469,16.7310703 26.6690859,15.9757031 27.0008203,15.1781484 C30.6304922,13.2086953 33.1879688,9.61839844 33.8489062,5.55447656 C33.9701953,4.8088125 33.7577109,4.04964844 33.2660156,3.47160938 Z M4.73334375,5.2869375 C4.69003125,5.02066406 4.76364844,4.7593125 4.94069531,4.55104688 C5.12034375,4.33982813 5.38204688,4.21875 5.65886719,4.21875 L8.1744375,4.21875 L8.1744375,5.75170313 C8.1744375,8.15540625 8.48121094,10.4837344 9.062625,12.6130078 C6.77775,10.8074531 5.20457812,8.18458594 4.73334375,5.2869375 Z M26.2636641,32.3608359 C26.7230859,32.3608359 27.0968672,32.7346172 27.0968672,33.1940391 L27.0968672,34.3336641 L9.92029688,34.3336641 L9.92029688,33.1940391 C9.92029688,32.7346172 10.2940781,32.3608359 10.7535,32.3608359 L26.2636641,32.3608359 L26.2636641,32.3608359 Z M23.0512266,27.7052344 L23.0512266,30.6944297 L13.9659375,30.6944297 L13.9659375,27.7052344 L23.0512266,27.7052344 Z M16.1510391,26.0388984 C16.3569844,25.8122109 16.5452813,25.5664687 16.7136797,25.3034297 C17.2689375,24.4358438 17.5603828,23.4502031 17.5734609,22.4435391 C17.8694063,22.4838281 18.1680938,22.5054141 18.4693125,22.5054141 C18.7970391,22.5054141 19.1217422,22.4802422 19.4432813,22.4325703 C19.4622656,23.7853125 19.9887656,25.0657734 20.8740703,26.0388281 L16.1510391,26.0388281 L16.1510391,26.0388984 Z M27.0967266,5.75177344 C27.0967266,9.85654687 26.1541172,13.7033437 24.4426406,16.5833438 C22.8119531,19.3276406 20.6904844,20.8390078 18.4691719,20.8390078 C16.2475078,20.8390078 14.1258984,19.3277109 12.495,16.5834844 C10.7834531,13.7034141 9.84084375,9.85661719 9.84084375,5.75191406 L9.84084375,1.7656875 C9.84084375,1.71084375 9.88542187,1.66633594 9.940125,1.66633594 L26.9973047,1.66633594 C27.0521484,1.66633594 27.0967266,1.71091406 27.0967266,1.7656875 L27.0967266,5.75177344 L27.0967266,5.75177344 Z M32.2041563,5.2869375 C31.7329219,8.184375 30.1598906,10.8071719 27.8750859,12.6128672 C28.4564297,10.4835937 28.7632031,8.15540625 28.7632031,5.75177344 L28.7632031,4.21882031 L31.2784922,4.21882031 C31.5553828,4.21882031 31.8170859,4.33996875 31.9966641,4.55111719 C32.1737109,4.7593125 32.2473984,5.02066406 32.2041563,5.2869375 Z" id="Shape" fill="#36353B" fill-rule="nonzero"></path>
        <path d="M23.5271016,8.55407813 C23.4290156,8.25257813 23.1682969,8.03278125 22.8544922,7.98707813 L20.3402578,7.62173438 L19.2158906,5.34346875 C19.0754766,5.059125 18.7858594,4.87905469 18.46875,4.87905469 C18.1515703,4.87905469 17.8619531,5.059125 17.7216094,5.34346875 L16.5972422,7.62173438 L14.0830078,7.98707813 C13.7691328,8.03264062 13.5084141,8.25250781 13.4103984,8.55414844 C13.3124531,8.85585937 13.3941563,9.18689063 13.6212656,9.40830469 L15.4406016,11.1816562 L15.0110625,13.6856953 C14.9574141,13.9983047 15.085875,14.3141484 15.3425156,14.5006172 C15.5990156,14.6870156 15.9392578,14.7115547 16.2199453,14.5640391 L18.46875,13.381875 L20.7174844,14.5640391 C20.8394062,14.6280937 20.9725078,14.6597153 21.1050469,14.6597153 C21.2777344,14.6597153 21.4497187,14.6060156 21.5948437,14.5005469 C21.8514844,14.3140781 21.9799453,13.9982344 21.9262969,13.685625 L21.4967578,11.1815859 L23.3160937,9.40823437 C23.5433437,9.18689063 23.6250469,8.85578906 23.5271016,8.55407813 Z M20.020125,10.2941016 C19.8237422,10.4854922 19.7340938,10.7612578 19.7805,11.0316094 L19.9986094,12.3035625 L18.8563828,11.7030234 C18.7350937,11.6391797 18.6018516,11.6073984 18.4686797,11.6073984 C18.3355078,11.6073984 18.2023359,11.6393203 18.0809766,11.7030234 L16.93875,12.3035625 L17.1568594,11.0316094 C17.2032656,10.7613281 17.1136172,10.4855625 16.9172344,10.2941016 L15.9932578,9.39339844 L17.2702734,9.20777344 C17.5416094,9.16839844 17.7762422,8.99789063 17.8976016,8.75200781 L18.46875,7.59480469 L19.0398281,8.75200781 C19.1612578,8.99789063 19.39575,9.16832813 19.6671563,9.20777344 L20.9441719,9.39339844 L20.020125,10.2941016 Z" id="Shape" fill="#36353B" fill-rule="nonzero"></path>
    </g>
</svg>